<svg width="122" height="122" viewBox="0 0 122 122" fill="none" xmlns="http://www.w3.org/2000/svg">
<defs>
  <linearGradient id="aiLogoGradient" x1="0%" y1="0%" x2="100%" y2="100%">
    <stop offset="0%" style="stop-color:#60A5FA;stop-opacity:1">
      <animate attributeName="stop-color" values="#60A5FA;#93C5FD;#3B82F6;#60A5FA;#93C5FD;#3B82F6;#60A5FA" dur="4s" repeatCount="indefinite"/>
    </stop>
    <stop offset="25%" style="stop-color:#93C5FD;stop-opacity:1">
      <animate attributeName="stop-color" values="#93C5FD;#3B82F6;#60A5FA;#93C5FD;#3B82F6;#60A5FA;#93C5FD" dur="4s" repeatCount="indefinite"/>
    </stop>
    <stop offset="50%" style="stop-color:#3B82F6;stop-opacity:1">
      <animate attributeName="stop-color" values="#3B82F6;#60A5FA;#93C5FD;#3B82F6;#60A5FA;#93C5FD;#3B82F6" dur="4s" repeatCount="indefinite"/>
    </stop>
    <stop offset="75%" style="stop-color:#60A5FA;stop-opacity:1">
      <animate attributeName="stop-color" values="#60A5FA;#93C5FD;#3B82F6;#60A5FA;#93C5FD;#3B82F6;#60A5FA" dur="4s" repeatCount="indefinite"/>
    </stop>
    <stop offset="100%" style="stop-color:#93C5FD;stop-opacity:1">
      <animate attributeName="stop-color" values="#93C5FD;#3B82F6;#60A5FA;#93C5FD;#3B82F6;#60A5FA;#93C5FD" dur="4s" repeatCount="indefinite"/>
    </stop>
  </linearGradient>
</defs>
<path d="M77 18.534C77 14.1489 75.3143 9.94344 72.3137 6.84271C69.3131 3.74197 65.2435 2 61 2C56.7565 2 52.6869 3.74197 49.6863 6.84271C46.6857 9.94344 45 14.1489 45 18.534V103.466C45 107.851 46.6857 112.057 49.6863 115.157C52.6869 118.258 56.7565 120 61 120C65.2435 120 69.3131 118.258 72.3137 115.157C75.3143 112.057 77 107.851 77 103.466V18.534Z" stroke="url(#aiLogoGradient)" stroke-width="4" stroke-linecap="round" stroke-linejoin="round"/>
<path d="M102.384 42.2733C105.489 39.1771 107.277 35.014 107.354 30.6999C107.431 26.3857 105.791 22.2738 102.795 19.2688C99.7989 16.2638 95.6919 14.6119 91.3775 14.6763C87.0631 14.7408 82.8948 16.5164 79.7895 19.6126L19.6452 79.5801C16.54 82.6762 14.7521 86.8393 14.6749 91.1535C14.5977 95.4677 16.2376 99.5795 19.2338 102.585C22.2299 105.59 26.3369 107.241 30.6513 107.177C34.9657 107.113 39.134 105.337 42.2393 102.241L102.384 42.2733Z" stroke="url(#aiLogoGradient)" stroke-width="4" stroke-linecap="round" stroke-linejoin="round"/>
<path d="M44.4736 44H18.5646C9.41168 44 2 51.403 2 60.5C2 69.597 9.41487 77 18.5646 77H44.4736L77.5264 44H103.435C112.588 44 120 51.403 120 60.5C120 69.597 112.585 77 103.435 77H77.5264" stroke="url(#aiLogoGradient)" stroke-width="4" stroke-linecap="round" stroke-linejoin="round"/>
<path d="M61.3856 37.2206L43.0922 18.8733C36.6296 12.3916 26.1541 12.3701 19.7121 18.7931C13.2701 25.2162 13.263 35.694 19.7234 42.1734L38.0168 60.5208L84.723 60.6268L103.016 78.9742C109.479 85.4558 109.47 95.9314 103.028 102.354C96.5858 108.778 86.108 108.754 79.6476 102.274L61.3542 83.927" stroke="url(#aiLogoGradient)" stroke-width="4" stroke-linecap="round" stroke-linejoin="round"/>
</svg>
