<svg width="100" height="100" viewBox="0 0 100 100" fill="none" xmlns="http://www.w3.org/2000/svg">
<rect width="100" height="100" rx="24" fill="url(#paint0_linear_265_133)"/>
<path d="M59 26.9676C59 24.5893 58.0518 22.3083 56.364 20.6266C54.6761 18.9448 52.3869 18 50 18C47.6131 18 45.3239 18.9448 43.636 20.6266C41.9482 22.3083 41 24.5893 41 26.9676V73.0324C41 75.4107 41.9482 77.6917 43.636 79.3735C45.3239 81.0552 47.6131 82 50 82C52.3869 82 54.6761 81.0552 56.364 79.3735C58.0518 77.6917 59 75.4107 59 73.0324V26.9676Z" fill="url(#paint1_linear_265_133)" stroke="#F9F9F9" stroke-width="4" stroke-linecap="round" stroke-linejoin="round"/>
<path d="M41.0365 41H26.9842C22.0199 41 18 45.038 18 50C18 54.962 22.0216 59 26.9842 59H41.0365L58.9635 41H73.0158C77.9801 41 82 45.038 82 50C82 54.962 77.9784 59 73.0158 59H58.9635" stroke="#F9F9F9" stroke-width="4" stroke-linecap="round" stroke-linejoin="round"/>
<defs>
<linearGradient id="paint0_linear_265_133" x1="50" y1="0" x2="50" y2="100" gradientUnits="userSpaceOnUse">
<stop stop-color="#0059C1"/>
<stop offset="1" stop-color="#3797FF"/>
</linearGradient>
<linearGradient id="paint1_linear_265_133" x1="50" y1="18" x2="50" y2="82" gradientUnits="userSpaceOnUse">
<stop stop-color="#0059C1"/>
<stop offset="1" stop-color="#3797FF"/>
</linearGradient>
</defs>
</svg>
